<?xml version="1.0" encoding="UTF-8"?>
<svg width="25px" height="24px" viewBox="0 0 25 24" version="1.1" xmlns="http://www.w3.org/2000/svg" xmlns:xlink="http://www.w3.org/1999/xlink">
    <!-- Generator: Sketch 46.2 (44496) - http://www.bohemiancoding.com/sketch -->
    <title>icon-linkedin</title>
    <desc>Created with Sketch.</desc>
    <defs></defs>
    <g id="Home" stroke="none" stroke-width="1" fill="none" fill-rule="evenodd">
        <g id="Menu" transform="translate(-140.000000, -674.000000)" fill-rule="nonzero" fill="#5A5A5A">
            <g id="Icons" transform="translate(40.000000, 674.000000)">
                <path d="M100.428571,0 L100.428571,24 L124.428571,24 L124.428571,0 L100.428571,0 Z M108.428571,19 L105.428571,19 L105.428571,8 L108.428571,8 L108.428571,19 Z M106.928571,6.732 C105.962571,6.732 105.178571,5.942 105.178571,4.968 C105.178571,3.994 105.962571,3.204 106.928571,3.204 C107.894571,3.204 108.678571,3.994 108.678571,4.968 C108.678571,5.942 107.895571,6.732 106.928571,6.732 Z M120.428571,19 L117.428571,19 L117.428571,13.396 C117.428571,10.028 113.428571,10.283 113.428571,13.396 L113.428571,19 L110.428571,19 L110.428571,8 L113.428571,8 L113.428571,9.765 C114.825571,7.179 120.428571,6.988 120.428571,12.241 L120.428571,19 Z" id="icon-linkedin"></path>
            </g>
        </g>
    </g>
</svg>