<?xml version="1.0" encoding="UTF-8"?>
<svg width="24px" height="24px" viewBox="0 0 24 24" version="1.1" xmlns="http://www.w3.org/2000/svg" xmlns:xlink="http://www.w3.org/1999/xlink">
    <!-- Generator: Sketch 46.2 (44496) - http://www.bohemiancoding.com/sketch -->
    <title>icon-instagram</title>
    <desc>Created with Sketch.</desc>
    <defs></defs>
    <g id="Home" stroke="none" stroke-width="1" fill="none" fill-rule="evenodd">
        <g id="Menu" transform="translate(-273.000000, -674.000000)" fill-rule="nonzero" fill="#5A5A5A">
            <g id="Icons" transform="translate(40.000000, 674.000000)">
                <path d="M251.667,5.823 L251.667,7.51 C251.667,7.781 251.445,8 251.17,8 L249.496,8 C249.222,8 249,7.781 249,7.51 L249,5.823 C249,5.552 249.222,5.333 249.496,5.333 L251.17,5.333 C251.445,5.333 251.667,5.552 251.667,5.823 L251.667,5.823 Z M257,0 L257,24 L233,24 L233,0 L257,0 Z M253,10 L248.482,10 C248.844,10.609 249.063,11.313 249.063,12.073 C249.063,14.322 247.239,16.146 244.99,16.146 C242.74,16.146 240.917,14.322 240.917,12.073 C240.917,11.313 241.136,10.609 241.498,10 L237,10 L237,16.852 C237,18.59 238.451,20 240.19,20 L249.852,20 C251.59,20 253,18.59 253,16.852 L253,10 L253,10 Z M244.99,15.21 C246.72,15.21 248.127,13.802 248.127,12.072 C248.127,11.133 247.711,10.289 247.056,9.714 C246.826,9.512 246.566,9.343 246.284,9.215 C245.889,9.035 245.451,8.935 244.99,8.935 C244.528,8.935 244.091,9.036 243.696,9.215 C243.414,9.343 243.154,9.512 242.925,9.714 C242.269,10.289 241.853,11.133 241.853,12.072 C241.852,13.803 243.26,15.21 244.99,15.21 L244.99,15.21 Z M253,7.148 C253,5.41 251.59,4 249.852,4 L241.667,4 L241.667,7.333 L241,7.333 L241,4 L240.333,4 L240.333,7.333 L239.667,7.333 L239.667,4.051 C239.436,4.089 239.212,4.146 239,4.231 L239,7.334 L238.333,7.334 L238.333,4.599 C237.532,5.17 237,6.096 237,7.148 L237,9.334 L241.982,9.334 C242.76,8.479 243.848,8 244.99,8 C246.138,8 247.223,8.483 247.997,9.333 L253,9.333 L253,7.148 Z M245,14.392 C246.281,14.392 247.319,13.354 247.319,12.073 C247.319,10.792 246.281,9.754 245,9.754 C243.719,9.754 242.681,10.792 242.681,12.073 C242.681,13.354 243.719,14.392 245,14.392 L245,14.392 Z" id="icon-instagram"></path>
            </g>
        </g>
    </g>
</svg>