<?xml version="1.0" encoding="UTF-8"?>
<svg width="42px" height="42px" viewBox="0 0 42 42" version="1.1" xmlns="http://www.w3.org/2000/svg" xmlns:xlink="http://www.w3.org/1999/xlink">
    <!-- Generator: Sketch 46.2 (44496) - http://www.bohemiancoding.com/sketch -->
    <title>icon-youtube</title>
    <desc>Created with Sketch.</desc>
    <defs></defs>
    <g id="Home" stroke="none" stroke-width="1" fill="none" fill-rule="evenodd">
        <g id="Footer" transform="translate(-837.000000, -991.000000)" fill-rule="nonzero" fill="#252525">
            <g id="Follow-Us" transform="translate(0.000000, 943.000000)">
                <g id="Icons" transform="translate(547.000000, 48.000000)">
                    <path d="M314.304,24.7695 C313.8,24.7695 313.36775,25.0915 313.04925,25.47825 L313.04925,22.1655 L311.62475,22.1655 L311.62475,32.4555 L313.04925,32.4555 L313.04925,31.87275 C313.443,32.36275 313.8735,32.55175 314.38975,32.55175 C315.3295,32.55175 315.6795,31.822 315.6795,30.88225 L315.6795,26.67175 C315.6795,25.64275 315.33825,24.7695 314.304,24.7695 L314.304,24.7695 Z M314.227,30.6775 C314.227,30.919 314.18675,31.094 314.1045,31.20075 C313.94875,31.40375 313.61275,31.395 313.38175,31.2795 L313.0475,31.01175 L313.0475,26.2815 L313.33975,26.0505 C313.5865,25.92625 313.905,25.949 314.0765,26.17475 C314.178,26.30775 314.227,26.502 314.227,26.7575 L314.227,30.6775 L314.227,30.6775 Z M309.474,15.75 L309.474,12.04175 C309.474,11.60425 309.67525,11.28225 310.09175,11.28225 C310.54675,11.28225 310.741,11.5955 310.741,12.04175 L310.741,15.75 C310.741,16.184 310.5205,16.50425 310.1215,16.50425 C309.71025,16.50425 309.474,16.17 309.474,15.75 L309.474,15.75 Z M306.23825,23.66 L304.59325,23.66 L304.59325,32.45725 L303.00425,32.45725 L303.00425,23.66 L301.35925,23.66 L301.35925,22.1655 L306.23825,22.1655 L306.23825,23.66 L306.23825,23.66 Z M308.83525,24.864 L310.2475,24.864 L310.2475,32.4555 L308.83525,32.4555 L308.83525,31.61725 C308.57625,31.92525 308.305,32.1615 308.02325,32.3225 C307.262,32.75825 306.219,32.7495 306.219,31.2095 L306.219,24.864 L307.6295,24.864 L307.6295,30.68275 C307.6295,30.989 307.703,31.19375 308.00575,31.19375 C308.2805,31.19375 308.66375,30.84025 308.83525,30.625 L308.83525,24.864 L308.83525,24.864 Z M290,3.10862447e-15 L290,42 L332,42 L332,0 L290,0 L290,3.10862447e-15 Z M313.5095,9.835 L314.99175,9.835 L314.99175,15.94425 C314.99175,16.26625 315.06875,16.4815 315.38725,16.4815 C315.676,16.4815 316.0785,16.1105 316.25875,15.88475 L316.25875,9.835 L317.741,9.835 L317.741,17.80625 L316.25875,17.80625 L316.25875,16.92425 C315.6165,17.68725 314.9935,17.92 314.5455,17.92 C313.751,17.92 313.51125,17.283 313.51125,16.49725 L313.51125,9.835 L313.5095,9.835 Z M310.11975,9.7685 C311.322,9.7685 312.2495,10.66275 312.2495,11.9105 L312.2495,15.81825 C312.2495,17.157 311.3115,17.95325 310.11975,17.95325 C308.683,17.95325 307.948,17.2235 307.948,15.81825 L307.948,11.9105 C307.948,10.63125 308.81425,9.7685 310.11975,9.7685 L310.11975,9.7685 Z M304.1085,7 L305.26,11.319 L306.32925,7 L308.025,7 L306.0825,13.4225 L306.0825,17.8045 L304.413,17.8045 L304.413,13.4225 L302.4285,7 L304.1085,7 L304.1085,7 Z M318.97125,34.846 C315.935,35.0525 306.0615,35.0525 303.02875,34.846 C299.74225,34.622 299.359,32.62875 299.3345,27.41725 C299.359,22.197 299.74575,20.21425 303.02875,19.9885 C306.0615,19.782 315.935,19.782 318.97125,19.9885 C322.25775,20.2125 322.641,22.20575 322.6655,27.41725 C322.641,32.6375 322.25425,34.62025 318.97125,34.846 Z M318.889,24.67325 C317.615,24.67325 316.74525,25.58675 316.74525,26.9045 L316.74525,30.31175 C316.74525,31.6785 317.43475,32.66025 318.78225,32.66025 C320.26975,32.66025 320.89625,31.77475 320.89625,30.31175 L320.89625,29.74125 L319.44375,29.74125 L319.44375,30.268 C319.44375,30.9295 319.40875,31.33025 318.81375,31.33025 C318.245,31.33025 318.19775,30.83675 318.19775,30.268 L318.19775,28.8365 L320.89625,28.8365 L320.89625,26.9045 C320.89625,25.53425 320.2435,24.67325 318.889,24.67325 L318.889,24.67325 Z M319.44375,27.6605 L318.19775,27.6605 L318.19775,26.89225 C318.19775,26.37075 318.30625,26.00325 318.82775,26.00325 C319.33525,26.00325 319.44375,26.3795 319.44375,26.89225 L319.44375,27.6605 Z" id="icon-youtube"></path>
                </g>
            </g>
        </g>
    </g>
</svg>