<?xml version="1.0" encoding="UTF-8"?>
<svg width="14px" height="16px" viewBox="0 0 14 16" version="1.1" xmlns="http://www.w3.org/2000/svg" xmlns:xlink="http://www.w3.org/1999/xlink">
    <!-- Generator: Sketch 46.2 (44496) - http://www.bohemiancoding.com/sketch -->
    <title>Icon</title>
    <desc>Created with Sketch.</desc>
    <defs></defs>
    <g id="Home" stroke="none" stroke-width="1" fill="none" fill-rule="evenodd">
        <g id="Footer" transform="translate(-793.000000, -502.000000)" fill-rule="nonzero" fill="#252525">
            <g id="Get-In-Touch" transform="translate(0.000000, 454.000000)">
                <path d="M800,48 C796.1,48 793,51.1 793,55 C793,56.9 793.7,58.7 795.1,60 C795.2,60.1 799.2,63.7 799.3,63.8 C799.7,64.1 800.3,64.1 800.6,63.8 C800.7,63.7 804.8,60.1 804.8,60 C806.2,58.7 806.9,56.9 806.9,55 C807,51.1 803.9,48 800,48 Z M800,57 C798.9,57 798,56.1 798,55 C798,53.9 798.9,53 800,53 C801.1,53 802,53.9 802,55 C802,56.1 801.1,57 800,57 Z" id="Icon"></path>
            </g>
        </g>
    </g>
</svg>