<?xml version="1.0" encoding="UTF-8"?>
<svg width="60px" height="54px" viewBox="0 0 60 54" version="1.1" xmlns="http://www.w3.org/2000/svg" xmlns:xlink="http://www.w3.org/1999/xlink">
    <!-- Generator: Sketch 46.2 (44496) - http://www.bohemiancoding.com/sketch -->
    <title>Icon</title>
    <desc>Created with Sketch.</desc>
    <defs></defs>
    <g id="Service" stroke="none" stroke-width="1" fill="none" fill-rule="evenodd" stroke-linecap="round" stroke-linejoin="round">
        <g transform="translate(-250.000000, -632.000000)" id="Icons" stroke="#252525" stroke-width="2">
            <g transform="translate(40.000000, 596.000000)">
                <path d="M223,77 L213,77 C211.895431,77 211,76.1045695 211,75 L211,39 C211,37.8954305 211.895431,37 213,37 L267,37 C268.104569,37 269,37.8954305 269,39 L269,75 C269,76.1045695 268.104569,77 267,77 L233,77 M233,77 L223,89 L223,77 M247,53 C248.104569,53 249,52.1045695 249,51 C249,49.8954305 248.104569,49 247,49 C245.895431,49 245,49.8954305 245,51 C245,52.1045695 245.895431,53 247,53 Z M233,53 C234.104569,53 235,52.1045695 235,51 C235,49.8954305 234.104569,49 233,49 C231.895431,49 231,49.8954305 231,51 C231,52.1045695 231.895431,53 233,53 Z M252,59 C249.263863,62.8911379 244.754593,65.145773 240,65 C235.245407,65.145773 230.736137,62.8911379 228,59" id="Icon"></path>
            </g>
        </g>
    </g>
</svg>