<?xml version="1.0" encoding="UTF-8"?>
<svg width="60px" height="60px" viewBox="0 0 60 60" version="1.1" xmlns="http://www.w3.org/2000/svg" xmlns:xlink="http://www.w3.org/1999/xlink">
    <!-- Generator: Sketch 46.2 (44496) - http://www.bohemiancoding.com/sketch -->
    <title>Icon</title>
    <desc>Created with Sketch.</desc>
    <defs></defs>
    <g id="Service" stroke="none" stroke-width="1" fill="none" fill-rule="evenodd" stroke-linecap="round" stroke-linejoin="round">
        <g transform="translate(-250.000000, -629.000000)" id="Icons" stroke="#252525" stroke-width="2">
            <g transform="translate(40.000000, 596.000000)">
                <path d="M247.00316,74 L239.00316,74 C238.450876,74 238.00316,74.4477153 238.00316,75 C238.00316,75.5522847 238.450876,76 239.00316,76 L247.00316,76 C247.555445,76 248.00316,75.5522847 248.00316,75 M217.00316,48 L217.00316,35.92 C216.99514,35.4187225 217.186613,34.9347965 217.535445,34.5747128 C217.884276,34.214629 218.361881,34.0078937 218.86316,34 L267.14316,34 C267.64444,34.0078937 268.122045,34.214629 268.470876,34.5747128 C268.819707,34.9347965 269.01118,35.4187225 269.00316,35.92 L269.00316,56 M253.00316,63.991617 C253.00316,62.8916773 253.897674,62 254.997221,62 L267.0091,62 C268.110389,62 269.00316,62.8978404 269.00316,63.991617 L269.00316,90.008383 C269.00316,91.1083227 268.108647,92 267.0091,92 L254.997221,92 C253.895932,92 253.00316,91.1021596 253.00316,90.008383 L253.00316,63.991617 Z M260.00316,67 L262.00316,67 C262.555445,67 263.00316,66.5522847 263.00316,66 C263.00316,65.4477153 262.555445,65 262.00316,65 L260.00316,65 C259.450876,65 259.00316,65.4477153 259.00316,66 M260.00316,87 L262.00316,87 L262.00316,89 L260.00316,89 L260.00316,87 Z M233.00316,88 C233.0825,90.1099393 231.451832,91.8920906 229.34316,92 L214.66316,92 C212.551994,91.8973931 210.918318,90.1119547 211.00316,88 L211.00316,58 C210.918318,55.8880453 212.551994,54.1026069 214.66316,54 L229.34316,54 C231.451832,54.1079094 233.0825,55.8900607 233.00316,58 L233.00316,88 Z M221.00316,59 L223.00316,59 C223.555445,59 224.00316,58.5522847 224.00316,58 C224.00316,57.4477153 223.555445,57 223.00316,57 L221.00316,57 C220.450876,57 220.00316,57.4477153 220.00316,58 M222.00316,88 C222.555445,88 223.00316,87.5522847 223.00316,87 C223.00316,86.4477153 222.555445,86 222.00316,86 C221.450876,86 221.00316,86.4477153 221.00316,87 C221.00316,87.5522847 221.450876,88 222.00316,88 Z" id="Icon"></path>
            </g>
        </g>
    </g>
</svg>