<?xml version="1.0" encoding="UTF-8"?>
<svg width="42px" height="42px" viewBox="0 0 42 42" version="1.1" xmlns="http://www.w3.org/2000/svg" xmlns:xlink="http://www.w3.org/1999/xlink">
    <!-- Generator: Sketch 46.2 (44496) - http://www.bohemiancoding.com/sketch -->
    <title>icon-foursquare</title>
    <desc>Created with Sketch.</desc>
    <defs></defs>
    <g id="Home" stroke="none" stroke-width="1" fill="none" fill-rule="evenodd">
        <g id="Footer" transform="translate(-1011.000000, -991.000000)" fill="#252525">
            <g id="Follow-Us" transform="translate(0.000000, 943.000000)">
                <g id="Icons" transform="translate(547.000000, 48.000000)">
                    <path d="M464,0 L506,0 L506,42 L464,42 L464,0 Z M477.343213,7 C475.146014,7 474.5,8.63369919 474.5,9.66312764 L474.5,34.680973 C474.5,35.840494 475.129582,36.2698939 475.484045,36.4117703 C475.838038,36.5541179 476.81504,36.6728982 477.400021,36.0059378 C477.400021,36.0059378 485.021673,27.35148 485.143739,27.2171453 C485.265336,27.0832819 485.39914,27.0813965 485.470972,27.0813965 C485.542803,27.0813965 488.725456,27.0823392 490.300584,27.0823392 C492.344261,27.0823392 492.672902,25.6173833 492.88558,24.7689533 L494.720335,15.7124339 L495.723629,10.7613732 C496.231613,8.31789467 495.60344,7 493.265395,7 L477.343213,7 L477.343213,7 Z M478,30.0661607 L478,11.4142014 C478,10.9935787 478.389582,10.5 478.974427,10.5 L491.84197,10.5 C492.316182,10.5 492.758244,10.9170199 492.637209,11.463289 L491.963951,14.7544139 C491.884049,15.1097365 491.510542,15.4465949 491.06848,15.4465949 C490.625473,15.4465949 484.821462,15.4371376 484.821462,15.4371376 C484.118891,15.4371376 483.511825,15.9338687 483.511825,16.5927242 L483.511825,17.3096742 C483.511825,17.9694304 484.086741,18.5075932 484.789312,18.5075932 L490.088853,18.5075932 C490.585286,18.5075932 491.003708,18.9471304 490.896384,19.4443119 C490.788587,19.942394 490.235891,22.5701599 490.175374,22.8421686 C490.114856,23.1146277 489.805177,23.4834606 489.307325,23.4834606 L484.981266,23.4834606 C484.082959,23.5095806 483.889114,23.5154351 483.361949,24.1301567 C482.834785,24.7453287 478.095031,30.0859759 478.095031,30.0859759 C478.074229,30.1080429 478.054371,30.1175001 478.038296,30.1175001 C478.015602,30.1175001 478,30.0990359 478,30.0661607 L478,30.0661607 Z" id="icon-foursquare"></path>
                </g>
            </g>
        </g>
    </g>
</svg>