<?xml version="1.0" encoding="UTF-8"?>
<svg width="42px" height="42px" viewBox="0 0 42 42" version="1.1" xmlns="http://www.w3.org/2000/svg" xmlns:xlink="http://www.w3.org/1999/xlink">
    <!-- Generator: Sketch 46.2 (44496) - http://www.bohemiancoding.com/sketch -->
    <title>icon-twitter</title>
    <desc>Created with Sketch.</desc>
    <defs></defs>
    <g id="Home" stroke="none" stroke-width="1" fill="none" fill-rule="evenodd">
        <g id="Footer" transform="translate(-663.000000, -991.000000)" fill-rule="nonzero" fill="#252525">
            <g id="Follow-Us" transform="translate(0.000000, 943.000000)">
                <g id="Icons" transform="translate(547.000000, 48.000000)">
                    <path d="M116,0 L116,42 L158,42 L158,0 L116,0 Z M149.0085,16.16475 C149.3725,24.2445 143.34725,33.2535 132.681,33.2535 C129.4365,33.2535 126.41775,32.30325 123.875,30.67225 C126.9235,31.031 129.965,30.18575 132.38,28.294 C129.86525,28.24675 127.74425,26.586 127.0145,24.304 C127.91575,24.4755 128.80125,24.42475 129.608,24.206 C126.84475,23.65125 124.939,21.16275 125.00025,18.501 C125.77375,18.9315 126.661,19.1905 127.60075,19.22025 C125.044,17.5105 124.3195,14.133 125.82275,11.55 C128.656,15.0255 132.88925,17.31275 137.66325,17.5525 C136.825,13.95975 139.5515,10.5 143.25975,10.5 C144.91175,10.5 146.4045,11.1965 147.45275,12.31475 C148.76175,12.0575 149.992,11.57975 151.1015,10.92175 C150.67275,12.264 149.761,13.38925 148.57625,14.09975 C149.73825,13.95975 150.846,13.65175 151.875,13.195 C151.105,14.343 150.13025,15.3545 149.0085,16.16475 L149.0085,16.16475 Z" id="icon-twitter"></path>
                </g>
            </g>
        </g>
    </g>
</svg>