<?xml version="1.0" encoding="UTF-8"?>
<svg width="25px" height="24px" viewBox="0 0 25 24" version="1.1" xmlns="http://www.w3.org/2000/svg" xmlns:xlink="http://www.w3.org/1999/xlink">
    <!-- Generator: Sketch 46.2 (44496) - http://www.bohemiancoding.com/sketch -->
    <title>icon-behance</title>
    <desc>Created with Sketch.</desc>
    <defs></defs>
    <g id="Home" stroke="none" stroke-width="1" fill="none" fill-rule="evenodd">
        <g id="Menu" transform="translate(-173.000000, -674.000000)" fill-rule="nonzero" fill="#5A5A5A">
            <g id="Icons" transform="translate(40.000000, 674.000000)">
                <path d="M151.574429,12.333 L148.556429,12.333 C148.845429,10.356 151.458429,10.618 151.574429,12.333 Z M141.832429,13 L139.571429,13 L139.571429,15.01 L141.799429,15.01 C143.835429,15.01 143.710429,13 141.832429,13 Z M141.752429,9 L139.571429,9 L139.571429,11 L141.960429,11 C143.633429,11 143.898429,9 141.752429,9 Z M157.571429,0 L157.571429,24 L133.571429,24 L133.571429,0 L157.571429,0 Z M147.571429,8 L152.571429,8 L152.571429,7 L147.571429,7 L147.571429,8 Z M144.019429,11.618 C145.926429,10.644 145.856429,7.068 142.206429,7.014 L137.571429,7.014 L137.571429,16.992 L141.882429,16.992 C146.404429,16.992 146.327429,12.458 144.019429,11.618 L144.019429,11.618 Z M153.506429,12.22 C153.232429,10.457 151.977429,9.27 149.923429,9.27 C147.828429,9.27 146.571429,10.61 146.571429,13.217 C146.571429,15.848 147.939429,17 149.988429,17 C152.036429,17 153.094429,15.865 153.388429,15 L151.276429,15 C150.539429,15.855 148.383429,15.521 148.509429,13.647 L153.568429,13.647 C153.578429,13.013 153.557429,12.558 153.506429,12.22 L153.506429,12.22 Z" id="icon-behance"></path>
            </g>
        </g>
    </g>
</svg>