<?xml version="1.0" encoding="UTF-8"?>
<svg width="42px" height="42px" viewBox="0 0 42 42" version="1.1" xmlns="http://www.w3.org/2000/svg" xmlns:xlink="http://www.w3.org/1999/xlink">
    <!-- Generator: Sketch 46.2 (44496) - http://www.bohemiancoding.com/sketch -->
    <title>icon-instagram</title>
    <desc>Created with Sketch.</desc>
    <defs></defs>
    <g id="Home" stroke="none" stroke-width="1" fill="none" fill-rule="evenodd">
        <g id="Footer" transform="translate(-953.000000, -991.000000)" fill-rule="nonzero" fill="#252525">
            <g id="Follow-Us" transform="translate(0.000000, 943.000000)">
                <g id="Icons" transform="translate(547.000000, 48.000000)">
                    <path d="M438.66725,10.19025 L438.66725,13.1425 C438.66725,13.61675 438.27875,14 437.7975,14 L434.868,14 C434.3885,14 434,13.61675 434,13.1425 L434,10.19025 C434,9.716 434.3885,9.33275 434.868,9.33275 L437.7975,9.33275 C438.27875,9.33275 438.66725,9.716 438.66725,10.19025 L438.66725,10.19025 Z M448,0 L448,42 L406,42 L406,0 L448,0 Z M441,17.5 L433.0935,17.5 C433.727,18.56575 434.11025,19.79775 434.11025,21.12775 C434.11025,25.0635 430.91825,28.2555 426.9825,28.2555 C423.045,28.2555 419.85475,25.0635 419.85475,21.12775 C419.85475,19.79775 420.238,18.56575 420.8715,17.5 L413,17.5 L413,29.491 C413,32.5325 415.53925,35 418.5825,35 L435.491,35 C438.5325,35 441,32.5325 441,29.491 L441,17.5 L441,17.5 Z M426.9825,26.6175 C430.01,26.6175 432.47225,24.1535 432.47225,21.126 C432.47225,19.48275 431.74425,18.00575 430.598,16.9995 C430.1955,16.646 429.7405,16.35025 429.247,16.12625 C428.55575,15.81125 427.78925,15.63625 426.9825,15.63625 C426.174,15.63625 425.40925,15.813 424.718,16.12625 C424.2245,16.35025 423.7695,16.646 423.36875,16.9995 C422.22075,18.00575 421.49275,19.48275 421.49275,21.126 C421.491,24.15525 423.955,26.6175 426.9825,26.6175 L426.9825,26.6175 Z M441,12.509 C441,9.4675 438.5325,7 435.491,7 L421.16725,7 L421.16725,12.83275 L420,12.83275 L420,7 L418.83275,7 L418.83275,12.83275 L417.66725,12.83275 L417.66725,7.08925 C417.263,7.15575 416.871,7.2555 416.5,7.40425 L416.5,12.8345 L415.33275,12.8345 L415.33275,8.04825 C413.931,9.0475 413,10.668 413,12.509 L413,16.3345 L421.7185,16.3345 C423.08,14.83825 424.984,14 426.9825,14 C428.9915,14 430.89025,14.84525 432.24475,16.33275 L441,16.33275 L441,12.509 Z M427,25.186 C429.24175,25.186 431.05825,23.3695 431.05825,21.12775 C431.05825,18.886 429.24175,17.0695 427,17.0695 C424.75825,17.0695 422.94175,18.886 422.94175,21.12775 C422.94175,23.3695 424.75825,25.186 427,25.186 L427,25.186 Z" id="icon-instagram"></path>
                </g>
            </g>
        </g>
    </g>
</svg>