<?xml version="1.0" encoding="UTF-8"?>
<svg width="25px" height="24px" viewBox="0 0 25 24" version="1.1" xmlns="http://www.w3.org/2000/svg" xmlns:xlink="http://www.w3.org/1999/xlink">
    <!-- Generator: Sketch 46.2 (44496) - http://www.bohemiancoding.com/sketch -->
    <title>icon-youtube</title>
    <desc>Created with Sketch.</desc>
    <defs></defs>
    <g id="Home" stroke="none" stroke-width="1" fill="none" fill-rule="evenodd">
        <g id="Menu" transform="translate(-206.000000, -674.000000)" fill-rule="nonzero" fill="#5A5A5A">
            <g id="Icons" transform="translate(40.000000, 674.000000)">
                <path d="M180.602286,14.154 C180.314286,14.154 180.067286,14.338 179.885286,14.559 L179.885286,12.666 L179.071286,12.666 L179.071286,18.546 L179.885286,18.546 L179.885286,18.213 C180.110286,18.493 180.356286,18.601 180.651286,18.601 C181.188286,18.601 181.388286,18.184 181.388286,17.647 L181.388286,15.241 C181.388286,14.653 181.193286,14.154 180.602286,14.154 L180.602286,14.154 Z M180.558286,17.53 C180.558286,17.668 180.535286,17.768 180.488286,17.829 C180.399286,17.945 180.207286,17.94 180.075286,17.874 L179.884286,17.721 L179.884286,15.018 L180.051286,14.886 C180.192286,14.815 180.374286,14.828 180.472286,14.957 C180.530286,15.033 180.558286,15.144 180.558286,15.29 L180.558286,17.53 L180.558286,17.53 Z M177.842286,9 L177.842286,6.881 C177.842286,6.631 177.957286,6.447 178.195286,6.447 C178.455286,6.447 178.566286,6.626 178.566286,6.881 L178.566286,9 C178.566286,9.248 178.440286,9.431 178.212286,9.431 C177.977286,9.431 177.842286,9.24 177.842286,9 L177.842286,9 Z M175.993286,13.52 L175.053286,13.52 L175.053286,18.547 L174.145286,18.547 L174.145286,13.52 L173.205286,13.52 L173.205286,12.666 L175.993286,12.666 L175.993286,13.52 L175.993286,13.52 Z M177.477286,14.208 L178.284286,14.208 L178.284286,18.546 L177.477286,18.546 L177.477286,18.067 C177.329286,18.243 177.174286,18.378 177.013286,18.47 C176.578286,18.719 175.982286,18.714 175.982286,17.834 L175.982286,14.208 L176.788286,14.208 L176.788286,17.533 C176.788286,17.708 176.830286,17.825 177.003286,17.825 C177.160286,17.825 177.379286,17.623 177.477286,17.5 L177.477286,14.208 L177.477286,14.208 Z M166.714286,1.77635684e-15 L166.714286,24 L190.714286,24 L190.714286,0 L166.714286,0 L166.714286,1.77635684e-15 Z M180.148286,5.62 L180.995286,5.62 L180.995286,9.111 C180.995286,9.295 181.039286,9.418 181.221286,9.418 C181.386286,9.418 181.616286,9.206 181.719286,9.077 L181.719286,5.62 L182.566286,5.62 L182.566286,10.175 L181.719286,10.175 L181.719286,9.671 C181.352286,10.107 180.996286,10.24 180.740286,10.24 C180.286286,10.24 180.149286,9.876 180.149286,9.427 L180.149286,5.62 L180.148286,5.62 Z M178.211286,5.582 C178.898286,5.582 179.428286,6.093 179.428286,6.806 L179.428286,9.039 C179.428286,9.804 178.892286,10.259 178.211286,10.259 C177.390286,10.259 176.970286,9.842 176.970286,9.039 L176.970286,6.806 C176.970286,6.075 177.465286,5.582 178.211286,5.582 L178.211286,5.582 Z M174.776286,4 L175.434286,6.468 L176.045286,4 L177.014286,4 L175.904286,7.67 L175.904286,10.174 L174.950286,10.174 L174.950286,7.67 L173.816286,4 L174.776286,4 L174.776286,4 Z M183.269286,19.912 C181.534286,20.03 175.892286,20.03 174.159286,19.912 C172.281286,19.784 172.062286,18.645 172.048286,15.667 C172.062286,12.684 172.283286,11.551 174.159286,11.422 C175.892286,11.304 181.534286,11.304 183.269286,11.422 C185.147286,11.55 185.366286,12.689 185.380286,15.667 C185.366286,18.65 185.145286,19.783 183.269286,19.912 Z M183.222286,14.099 C182.494286,14.099 181.997286,14.621 181.997286,15.374 L181.997286,17.321 C181.997286,18.102 182.391286,18.663 183.161286,18.663 C184.011286,18.663 184.369286,18.157 184.369286,17.321 L184.369286,16.995 L183.539286,16.995 L183.539286,17.296 C183.539286,17.674 183.519286,17.903 183.179286,17.903 C182.854286,17.903 182.827286,17.621 182.827286,17.296 L182.827286,16.478 L184.369286,16.478 L184.369286,15.374 C184.369286,14.591 183.996286,14.099 183.222286,14.099 L183.222286,14.099 Z M183.539286,15.806 L182.827286,15.806 L182.827286,15.367 C182.827286,15.069 182.889286,14.859 183.187286,14.859 C183.477286,14.859 183.539286,15.074 183.539286,15.367 L183.539286,15.806 Z" id="icon-youtube"></path>
            </g>
        </g>
    </g>
</svg>