<?xml version="1.0" encoding="UTF-8"?>
<svg width="270px" height="21px" viewBox="0 0 270 21" version="1.1" xmlns="http://www.w3.org/2000/svg" xmlns:xlink="http://www.w3.org/1999/xlink">
    <!-- Generator: Sketch 46.2 (44496) - http://www.bohemiancoding.com/sketch -->
    <title>Underline</title>
    <desc>Created with Sketch.</desc>
    <defs></defs>
    <g id="Home" stroke="none" stroke-width="1" fill="none" fill-rule="evenodd">
        <g id="Hero" transform="translate(-585.000000, -324.000000)" fill-rule="nonzero" fill="#00EB7F">
            <path d="M851.963433,335.384852 C852.885179,336.202133 853.763033,336.9764 854.684779,337.793682 C855.079813,338.094785 855.079813,339.084126 854.816457,339.428245 C854.684779,339.643319 854.465316,339.901408 854.509208,340.116482 C854.553101,340.63266 854.245852,340.847734 853.894711,340.976778 C853.192428,341.191852 852.446253,341.406926 851.656185,340.976778 C851.08558,340.63266 850.339404,340.54663 849.724907,340.417586 C849.022624,340.245526 848.320341,340.073467 847.661951,340.073467 C846.784098,340.030452 845.862352,340.116482 844.984498,340.116482 C844.150537,340.116482 843.316577,340.202511 842.526508,340.030452 C841.473084,339.815378 840.41966,339.772363 839.454021,339.170156 C838.927309,338.869052 838.225026,338.869052 837.610529,338.912067 C836.952139,338.955082 836.425427,338.783022 835.942607,338.438904 C835.547573,338.22383 835.196432,338.1378 834.757505,338.1378 C833.572403,338.1378 832.387301,337.965741 831.202199,337.922726 C829.358706,337.793682 827.515214,337.621622 825.715614,337.492578 C825.32058,337.492578 825.057224,337.191474 824.574405,337.234489 C822.994269,337.277504 821.37024,337.06243 819.746211,336.9764 C818.91225,336.933385 818.078289,336.9764 817.244328,336.933385 C815.356943,336.847356 813.469558,336.718311 811.582174,336.589267 C810.879891,336.546252 810.221501,336.589267 809.519218,336.589267 C808.72915,336.546252 807.895189,336.804341 807.149013,336.245148 C806.973443,336.116104 806.666194,336.030074 806.490623,336.116104 C805.481092,336.374192 804.47156,336.245148 803.462029,335.987059 C803.374244,335.987059 803.286458,335.944044 803.242566,335.987059 C801.399073,336.460222 799.599474,335.901029 797.799874,336.116104 C797.712089,336.116104 797.580411,336.116104 797.492625,336.073089 C796.131952,335.685955 794.771279,335.771985 793.366714,335.72897 C792.31329,335.72897 791.303758,335.599926 790.250334,335.513896 C790.118656,335.513896 789.943085,335.427866 789.8553,335.513896 C789.153017,336.159118 788.275164,335.72897 787.528988,335.858015 C787.353418,335.901029 787.133954,335.858015 787.002276,335.72897 C786.431671,335.255807 785.817174,335.470881 785.246569,335.771985 C785.114891,335.858015 784.851535,335.944044 784.851535,335.944044 C784.456501,335.427866 783.929789,335.771985 783.490862,335.858015 C782.30576,336.159118 781.076765,335.815 779.891663,335.771985 C779.584414,335.771985 779.277166,335.685955 778.969917,335.685955 C778.311527,335.642941 777.697029,335.685955 777.170317,335.169778 C776.863069,334.911689 776.380249,334.825659 776.029108,335.341837 C775.677966,335.815 774.58065,335.901029 773.966152,335.72897 C772.298231,335.255807 770.586416,334.6536 768.786817,335.083748 C767.821178,335.298822 766.811646,335.513896 765.846008,335.556911 C764.880369,335.599926 763.91473,335.384852 762.949091,335.341837 C762.554057,335.341837 762.159023,335.341837 761.720096,335.384852 C761.500633,335.384852 761.281169,335.470881 761.105599,335.384852 C759.613248,334.825659 758.120897,335.083748 756.628546,335.341837 C755.662907,335.513896 754.609483,335.255807 753.599952,335.169778 C753.292703,335.169778 752.985454,335.126763 752.678205,335.212792 C752.370957,335.341837 752.107601,335.556911 751.800352,335.126763 C751.756459,335.083748 751.580889,335.126763 751.449211,335.126763 C751.010284,335.126763 750.571357,335.169778 750.13243,335.169778 C749.95686,335.212792 749.693504,335.126763 749.605718,335.212792 C748.903436,335.987059 748.069475,335.470881 747.279407,335.427866 C747.147729,335.427866 747.016051,335.298822 746.928265,335.341837 C745.611485,335.771985 744.338597,335.513896 743.021817,335.513896 C742.100071,335.513896 741.134432,335.599926 740.212686,335.642941 C740.081008,335.642941 739.94933,335.685955 739.817652,335.685955 C739.071477,335.685955 738.369194,335.685955 737.623018,335.599926 C737.271877,335.599926 736.920736,335.384852 736.525702,335.341837 C736.394024,335.298822 736.17456,335.341837 736.130667,335.427866 C735.823419,335.771985 735.472277,335.685955 735.033351,335.642941 C733.760463,335.556911 732.531468,335.384852 731.258581,335.685955 C730.292942,335.901029 729.239518,335.987059 728.142201,335.815 C726.957099,335.685955 725.771997,335.858015 724.586894,335.901029 C724.104075,335.901029 723.577363,335.944044 723.094543,335.901029 C722.918973,335.901029 722.699509,335.815 722.611724,335.685955 C722.260583,335.298822 721.733871,335.341837 721.470514,335.513896 C720.856017,335.901029 720.460983,335.599926 719.978164,335.255807 C719.495344,334.911689 719.407559,334.911689 719.363666,335.513896 C719.319773,335.858015 719.144203,335.987059 718.836954,335.944044 C718.002993,335.901029 717.169032,335.901029 716.335072,335.815 C716.159501,335.815 715.940038,335.72897 715.764467,335.556911 C715.149969,335.126763 714.579365,335.169778 713.964867,335.384852 C713.043121,335.771985 712.03359,335.944044 711.024058,335.901029 C710.453453,335.858015 709.926741,336.073089 709.356137,336.159118 C709.092781,336.202133 708.829424,336.159118 708.566068,336.202133 C707.995464,336.245148 707.424859,336.245148 706.94204,336.374192 C706.195864,336.589267 705.537474,336.374192 704.879084,336.159118 C704.527942,336.030074 704.176801,335.858015 703.82566,335.858015 C703.430626,335.815 703.035592,335.815 702.772236,336.288163 C702.508879,336.761326 702.113845,336.847356 701.631026,336.804341 L701.543241,336.804341 C700.533709,336.546252 699.56807,336.589267 698.602432,336.804341 C698.25129,336.89037 697.944041,336.847356 697.768471,336.503237 C697.505115,335.944044 697.022295,336.116104 696.627261,336.245148 C696.451691,336.288163 696.320012,336.417207 696.188334,336.503237 C695.837193,336.89037 695.486052,336.761326 695.13491,336.460222 C694.915447,336.288163 694.564306,336.116104 694.30095,336.116104 C693.466989,336.073089 692.633028,336.159118 691.799067,336.159118 C690.877321,336.159118 689.911682,336.116104 688.989936,336.159118 C688.682687,336.202133 688.375439,336.288163 688.06819,336.417207 C687.234229,336.718311 686.400268,336.675296 685.522415,336.632281 C684.732347,336.589267 683.986171,336.503237 683.327781,337.148459 C683.239996,337.277504 682.888854,337.148459 682.669391,337.148459 C681.923216,337.019415 681.133147,336.675296 680.430865,336.847356 C679.333548,337.191474 678.280124,336.9764 677.182807,337.06243 C676.656095,337.105444 676.08549,337.019415 675.514885,336.933385 C674.812602,336.89037 674.022534,336.632281 673.45193,336.89037 C672.398505,337.320519 671.388974,337.105444 670.33555,337.277504 C669.85273,337.363533 669.282126,337.406548 668.755413,337.320519 C667.438633,337.191474 666.121853,337.234489 664.848965,337.492578 C664.585609,337.535593 664.278361,337.406548 664.015005,337.363533 C663.224937,337.234489 662.434868,336.933385 661.688693,337.449563 C661.600908,337.535593 661.46923,337.578607 661.337552,337.578607 C660.240235,337.664637 659.099025,337.707652 658.001708,337.836696 C657.255533,337.922726 656.55325,337.793682 655.807075,337.578607 C655.543719,337.492578 655.192577,337.535593 654.885329,337.621622 C654.007475,337.836696 653.085729,338.094785 652.207875,337.965741 C651.681163,337.879711 651.110559,338.008756 650.583847,338.008756 C648.608676,338.180815 646.633506,338.309859 644.614443,338.524933 C643.473233,338.653978 642.288131,338.955082 641.146922,339.127141 C640.400746,339.256185 639.610678,339.213171 638.82061,339.2992 C637.942757,339.428245 637.064903,339.643319 636.143157,339.729348 C635.04584,339.858393 633.904631,339.901408 632.807314,339.987437 C631.75389,340.073467 630.700465,340.116482 629.690934,340.202511 C628.81308,340.331556 627.935227,340.589645 627.101266,340.761704 C626.794017,340.847734 626.442876,340.718689 626.17952,340.804719 C625.740593,340.933763 625.169989,340.847734 624.818847,341.277882 C624.818847,341.277882 624.599384,341.277882 624.511598,341.277882 C623.150926,341.320897 621.74636,341.406926 620.385687,341.492956 C619.815082,341.535971 619.244478,341.665015 618.717765,341.79406 C617.620449,342.095164 616.523132,342.224208 615.33803,342.138178 C614.811318,342.052149 614.240713,342.310238 613.670108,342.439282 C613.055611,342.568327 612.485006,342.525312 611.914401,342.224208 C611.651045,342.095164 611.299904,342.009134 610.992655,342.095164 C610.027016,342.310238 608.973592,342.611341 608.007953,342.86943 C607.261778,343.084504 606.515602,343.299579 605.769427,343.471638 C604.628217,343.729727 603.443115,343.901786 602.258013,344.073845 C600.590091,344.288919 598.92217,344.245905 597.254248,343.772742 C596.946999,343.686712 596.551965,343.858771 596.200824,343.944801 C595.937468,344.03083 595.718004,344.159875 595.410756,344.245905 C594.927936,344.331934 594.445117,344.460979 593.962298,344.762082 C593.523371,345.106201 592.908873,345.020171 592.294376,344.848112 C591.855449,344.719068 591.37263,344.676053 590.933703,344.762082 C590.319206,344.848112 589.748601,344.891127 589.265781,344.503993 C588.782962,344.159875 588.300143,344.073845 587.773431,344.11686 C586.676114,344.20289 585.886046,343.815756 585.578797,342.224208 C585.534904,342.095164 585.534904,341.923104 585.491012,341.880089 C584.744836,341.062808 585.095977,340.073467 585.008192,339.127141 C584.920407,338.008756 585.79826,337.406548 586.193294,336.546252 C586.895577,335.040733 588.300143,334.223451 589.57303,333.363155 C589.924172,333.105066 590.406991,333.062051 590.845918,332.933007 C591.635986,332.674918 592.513839,332.416829 593.303907,332.201755 C593.655049,332.115725 594.00619,332.15874 594.357332,332.115725 C594.445117,332.115725 594.48901,332.201755 594.576795,332.201755 C595.674112,332.115725 596.771429,332.373814 597.824853,332.029696 C597.956531,331.986681 598.088209,331.943666 598.219887,331.943666 C599.009955,332.07271 599.668345,331.943666 600.370628,331.556533 C600.502306,331.470503 600.721769,331.470503 600.89734,331.556533 C601.994657,331.900651 603.048081,331.642562 604.101505,331.513518 C605.023251,331.427488 605.944997,331.255429 606.910636,331.126384 C607.876275,330.99734 608.885807,330.91131 609.851445,330.825281 C611.387689,330.653221 612.967825,330.481162 614.504069,330.309103 C616.259776,330.180058 618.059375,330.094029 619.858975,329.964984 C620.780721,329.878955 621.658575,329.74991 622.580321,329.620866 C622.843677,329.577851 623.150926,329.577851 623.414282,329.620866 C624.028779,329.706895 624.687169,329.792925 625.257774,329.491821 C625.433345,329.362777 625.740593,329.362777 625.960057,329.405792 C626.706232,329.577851 627.408515,329.491821 628.110798,329.276747 C628.681402,329.104688 629.252007,328.975643 629.910397,329.190718 C629.998183,329.233732 630.129861,329.190718 630.217646,329.190718 C631.841675,328.631525 633.465704,329.018658 635.133625,328.846599 C635.616445,328.803584 636.099264,328.67454 636.582084,328.631525 C636.669869,328.58851 636.801547,328.545495 636.889332,328.545495 C637.898864,328.459466 638.908395,328.373436 639.917927,328.330421 C640.883566,328.244391 641.893097,328.330421 642.814843,328.115347 C644.131624,327.900273 645.448404,327.900273 646.809077,327.900273 C648.34532,327.857258 649.837671,327.685199 651.373915,327.51314 C651.681163,327.470125 651.944519,327.42711 652.251768,327.42711 C653.041836,327.42711 653.788012,327.470125 654.57808,327.255051 C655.280363,327.082991 656.070431,327.212036 656.860499,327.169021 C658.089494,327.082991 659.274596,326.996962 660.503591,326.910932 C662.434868,326.824902 664.322253,326.738873 666.253531,326.695858 C667.131385,326.652843 668.009238,326.523799 668.930984,326.480784 C670.203872,326.394754 671.476759,326.394754 672.749647,326.308725 C673.539715,326.26571 674.329783,326.17968 675.163744,326.136665 C675.558778,326.09365 675.997705,326.09365 676.392739,326.09365 C676.963343,326.09365 677.533948,326.050636 678.104553,326.050636 C678.280124,326.050636 678.499587,325.964606 678.631265,326.09365 C679.37744,326.437769 680.123616,326.222695 680.869791,326.136665 C680.957577,326.136665 681.089255,326.050636 681.17704,326.050636 C682.098786,326.09365 683.020532,326.007621 683.942279,325.835562 C685.215166,325.620487 686.531946,325.620487 687.848726,325.706517 C688.770473,325.749532 689.648326,325.491443 690.52618,325.491443 C691.579604,325.491443 692.676921,325.577473 693.730345,325.577473 C694.520413,325.577473 695.266588,325.491443 696.012764,325.405413 C696.100549,325.405413 696.144442,325.362399 696.232227,325.319384 C697.636793,325.319384 698.997466,325.276369 700.402031,325.276369 C700.928743,325.276369 701.455455,325.233354 701.982167,325.233354 C702.903914,325.190339 703.82566,325.147324 704.747406,325.147324 C705.318011,325.147324 705.888615,325.233354 706.45922,325.147324 C707.556537,324.975265 708.653854,325.620487 709.707278,325.190339 C709.926741,325.061295 710.277883,325.190339 710.585131,325.190339 C710.716809,325.190339 710.89238,325.233354 710.980165,325.190339 C712.253053,324.588132 713.525941,324.889235 714.842721,324.846221 C715.632789,324.846221 716.378964,324.674161 717.169032,324.631147 C717.476281,324.588132 717.827423,324.717176 718.134671,324.717176 C718.310242,324.717176 718.44192,324.760191 718.617491,324.760191 C719.890378,324.631147 721.163266,324.588132 722.436153,324.803206 L722.611724,324.803206 C723.357899,324.588132 724.147968,324.330043 724.894143,324.114969 C725.069714,324.071954 725.289177,324.028939 725.464748,324.071954 C726.035353,324.114969 726.64985,324.114969 727.220455,324.157984 C727.264347,324.157984 727.352133,324.071954 727.352133,324.114969 C728.186094,324.760191 729.239518,323.813865 730.161264,324.545117 C730.687976,325.01828 731.170795,324.717176 731.521937,324.200998 C731.609722,324.071954 731.916971,323.942909 732.048649,324.028939 C732.487576,324.200998 732.838717,324.157984 733.277644,324.028939 C733.541,323.942909 733.848248,324.071954 734.111605,324.114969 C734.989458,324.330043 735.735633,324.631147 736.701272,324.244013 C737.271877,324.028939 738.061945,324.200998 738.720335,324.244013 C739.29094,324.330043 739.817652,324.416072 740.388257,324.114969 C740.739398,323.942909 741.222218,324.071954 741.661144,324.071954 C743.241281,324.157984 744.86531,324.373058 746.445446,324.287028 C747.323299,324.244013 748.201153,324.545117 749.079006,324.416072 C749.825182,324.330043 750.571357,324.244013 751.317533,324.244013 C752.327064,324.200998 753.292703,324.157984 754.302234,324.200998 C754.785054,324.200998 755.311766,324.244013 755.794585,324.287028 C756.540761,324.330043 757.286936,324.071954 758.033112,324.502102 C758.077004,324.545117 758.208682,324.545117 758.252575,324.502102 C759.042643,323.985924 759.876604,324.416072 760.666672,324.373058 C762.510164,324.244013 764.397549,324.502102 766.241042,324.502102 C767.513929,324.459087 768.786817,324.416072 770.103597,324.416072 C771.288699,324.416072 772.517694,324.545117 773.702796,324.502102 C774.58065,324.502102 775.41461,324.373058 776.292464,324.373058 C776.775283,324.373058 777.301995,324.416072 777.784815,324.502102 C777.960385,324.502102 778.179849,324.631147 778.311527,324.631147 C779.891663,324.244013 781.515692,324.975265 783.051936,324.545117 C783.183614,324.502102 783.403077,324.459087 783.490862,324.588132 C784.237038,325.061295 785.158784,324.846221 785.948852,324.846221 C786.036637,324.846221 786.168315,324.803206 786.256101,324.803206 C787.704559,325.147324 789.19691,325.233354 790.645368,325.10431 L790.733154,325.10431 C791.347651,325.534458 791.962148,325.276369 792.620538,325.190339 C793.498392,325.061295 794.376245,324.975265 795.254099,324.846221 C795.385777,324.803206 795.517455,324.803206 795.649133,324.803206 C797.492625,325.276369 799.423903,324.889235 801.311288,325.01828 C802.320819,325.061295 803.286458,325.147324 804.29599,325.233354 C804.910487,325.276369 805.481092,325.190339 806.095589,325.233354 C806.710087,325.276369 807.368477,325.319384 807.982974,325.405413 C808.773042,325.534458 809.519218,325.663502 810.309286,325.534458 C811.011569,325.405413 811.757744,325.534458 812.50392,325.620487 C813.8207,325.749532 815.13748,325.835562 816.45426,325.964606 L816.629831,325.964606 C817.858826,326.394754 819.175606,326.007621 820.448494,326.136665 C821.589703,326.222695 822.68702,326.394754 823.828229,326.523799 C824.0038,326.523799 824.135478,326.523799 824.311049,326.566813 C824.925546,326.652843 825.540044,326.738873 826.154541,326.824902 C826.330112,326.824902 826.505683,326.867917 826.725146,326.867917 C827.515214,326.867917 828.349175,326.996962 829.051458,326.738873 C830.017096,326.394754 830.851057,326.824902 831.772803,326.824902 C832.69455,326.781888 833.660188,326.996962 834.625827,326.996962 C835.152539,327.039977 835.679251,326.910932 836.205963,327.039977 C837.698314,327.34108 839.190665,327.470125 840.639123,327.685199 C840.990265,327.728214 841.341406,327.642184 841.692548,327.642184 C841.912011,327.642184 842.131474,327.857258 842.350938,327.857258 C843.623825,327.857258 844.85282,327.900273 846.125708,327.900273 C846.213493,327.900273 846.345171,327.857258 846.432956,327.900273 C848.056985,328.287406 849.637122,328.58851 850.910009,329.74991 C851.26115,330.051014 851.74397,330.266088 852.095111,330.610207 C852.534038,331.126384 852.929072,331.685577 853.324106,332.201755 C853.71914,332.717933 854.158067,333.277125 854.596994,333.793303 C854.904242,334.094407 855.03592,334.954703 854.728672,335.212792 C854.596994,335.341837 854.289745,335.384852 854.070282,335.341837 C853.499677,335.212792 852.929072,334.997718 852.40236,334.868674 C852.182897,334.825659 851.919541,334.868674 851.700077,334.868674 C852.007326,335.298822 852.007326,335.341837 851.963433,335.384852 Z M706.239757,329.491821 C705.888615,329.83594 704.65962,330.137044 704.440157,329.878955 C704.089016,329.405792 703.82566,329.74991 703.518411,329.83594 C702.728343,330.051014 701.894382,330.481162 701.104314,330.395132 C700.270353,330.352118 699.480285,330.051014 698.821895,330.825281 C698.778002,330.868296 698.73411,330.868296 698.690217,330.868296 C697.987934,330.739251 697.285651,330.696236 696.583369,330.567192 C695.881086,330.395132 695.222696,330.180058 694.520413,330.438147 C694.037593,330.524177 693.510881,330.395132 692.984169,330.352118 C692.676921,330.352118 692.281887,330.223073 692.106316,330.395132 C691.447926,330.868296 690.833428,330.653221 690.131146,330.610207 C689.209399,330.524177 688.331546,330.352118 687.4098,330.524177 C686.488054,330.653221 685.566307,330.610207 684.556776,330.653221 C684.381205,331.040355 684.381205,331.040355 683.766708,330.954325 C683.591137,330.954325 683.415566,330.99734 683.283888,330.99734 C682.669391,331.169399 682.011001,331.599547 681.396503,330.99734 C681.264825,330.91131 681.001469,330.954325 680.782006,330.91131 C680.430865,330.954325 680.123616,330.954325 679.816367,331.040355 C679.157977,331.212414 678.367909,330.653221 677.797304,331.427488 C677.753412,331.470503 677.533948,331.427488 677.40227,331.470503 C676.875558,331.513518 676.392739,331.599547 675.866027,331.642562 C675.514885,331.685577 675.163744,331.728592 674.812602,331.685577 C674.549246,331.685577 674.241998,331.470503 673.978642,331.384473 C673.539715,331.212414 673.188573,331.169399 672.837432,331.599547 C672.705754,331.771607 672.31072,331.814622 672.047364,331.814622 C670.99394,331.771607 669.940516,331.642562 668.887091,331.513518 C668.492057,331.513518 668.140916,331.599547 667.745882,331.642562 C666.955814,331.642562 666.121853,331.685577 665.331785,331.556533 C664.848965,331.470503 664.015005,331.470503 663.927219,331.857636 C663.751649,332.416829 663.4444,332.201755 663.137151,332.24477 C662.78601,332.287785 662.390976,332.24477 662.039834,332.330799 C661.820371,332.416829 661.6448,332.631903 661.46923,332.674918 C661.864264,332.933007 662.12762,333.234111 662.434868,333.40617 C662.566546,333.4922 662.78601,333.535214 662.961581,333.578229 C664.234468,333.578229 665.507356,333.578229 666.780243,333.535214 C668.053131,333.4922 669.326018,333.621244 670.598906,333.277125 C671.915686,332.933007 673.276359,333.363155 674.637032,333.105066 C676.08549,332.846977 677.665626,332.889992 679.157977,332.846977 C679.509118,332.803962 679.904153,333.019037 680.299187,333.105066 C680.474757,333.148081 680.694221,333.277125 680.869791,333.277125 C681.484289,333.234111 682.054894,333.148081 682.625498,333.062051 C683.678922,332.889992 684.732347,332.717933 685.829663,332.588888 C685.917449,332.588888 686.049127,332.631903 686.136912,332.631903 C686.575839,332.717933 687.014766,332.760948 687.453692,332.760948 C688.024297,332.760948 688.638795,332.502859 689.209399,332.545873 C690.04336,332.545873 690.877321,332.760948 691.711282,332.803962 C692.545243,332.846977 693.379203,332.846977 694.213164,332.760948 C695.047125,332.631903 695.924978,332.803962 696.758939,332.545873 C696.802832,332.545873 696.93451,332.631903 697.022295,332.717933 C697.329544,333.148081 697.856256,333.148081 698.25129,332.933007 C699.085251,332.545873 699.963104,332.24477 700.928743,332.416829 C701.323777,332.459844 701.718811,332.287785 702.201631,332.631903 C702.464987,332.846977 703.035592,332.674918 703.518411,332.674918 C703.562304,332.674918 703.606196,332.717933 703.650089,332.717933 C703.869552,332.717933 704.089016,332.803962 704.264586,332.717933 C704.65962,332.459844 705.054655,332.631903 705.493581,332.674918 C706.283649,332.717933 707.029825,332.760948 707.819893,332.717933 C708.346605,332.717933 708.829424,332.545873 709.312244,332.502859 C709.443922,332.459844 709.663385,332.416829 709.707278,332.330799 C710.014527,331.900651 710.365668,331.943666 710.804595,332.029696 C711.287414,332.15874 711.770234,332.287785 712.253053,332.373814 C713.569833,332.545873 714.886613,332.760948 716.159501,332.459844 C716.64232,332.373814 717.212925,332.502859 717.739637,332.545873 C717.959101,332.545873 718.222457,332.502859 718.44192,332.459844 C719.231988,332.330799 720.065949,332.029696 720.812124,332.15874 C721.953334,332.330799 723.006758,332.24477 724.104075,332.15874 C724.85025,332.115725 725.552533,332.24477 726.298709,332.115725 C726.737635,332.029696 727.396025,332.502859 727.791059,332.416829 C728.581128,332.201755 729.371196,332.373814 730.117371,332.330799 C730.161264,332.330799 730.161264,332.330799 730.205157,332.287785 C730.863547,332.24477 731.565829,332.07271 732.22422,332.115725 C732.970395,332.201755 733.672678,332.07271 734.418853,332.029696 C735.51617,331.943666 736.613487,331.943666 737.710804,331.943666 C738.14973,331.943666 738.588657,332.115725 739.027584,332.15874 C740.037115,332.15874 741.09054,332.115725 742.100071,332.15874 C742.890139,332.15874 743.680207,332.287785 744.470275,332.24477 C745.787056,332.201755 747.147729,332.029696 748.464509,331.986681 C748.81565,331.943666 749.210684,332.07271 749.561826,332.07271 C750.351894,332.07271 751.141962,332.029696 751.888137,332.029696 C752.107601,332.029696 752.370957,331.986681 752.59042,331.986681 C753.863308,332.029696 755.180088,332.115725 756.452975,332.201755 C756.804117,332.201755 757.199151,332.330799 757.550292,332.287785 C758.647609,332.15874 759.744926,332.029696 760.886135,331.900651 C761.017813,331.900651 761.149491,331.943666 761.281169,331.943666 C761.851774,331.986681 762.422379,331.943666 762.992984,331.986681 C763.25634,331.986681 763.519696,332.029696 763.783052,332.029696 C764.441442,332.115725 765.055939,332.201755 765.71433,332.24477 C766.284934,332.287785 766.899432,332.115725 767.470036,332.07271 C769.094065,331.900651 770.674202,332.416829 772.298231,332.24477 C773.43944,332.115725 774.624542,332.330799 775.765752,332.24477 C777.301995,332.15874 778.882132,332.631903 780.374483,332.07271 C780.506161,332.029696 780.637839,332.07271 780.769517,332.07271 C782.130189,332.15874 783.490862,332.201755 784.851535,332.330799 C786.08053,332.459844 786.826706,331.900651 787.309525,331.126384 C787.133954,330.739251 786.958384,330.395132 787.002276,330.266088 C787.133954,330.051014 787.485096,330.051014 787.748452,329.921969 C786.870598,329.663881 786.036637,329.534836 785.158784,329.448806 C785.027106,329.448806 784.895428,329.534836 784.76375,329.534836 C784.237038,329.577851 783.710326,329.663881 783.183614,329.74991 C782.96415,329.792925 782.656902,329.921969 782.656902,330.007999 C782.569116,330.524177 782.349653,330.481162 781.910726,330.481162 C781.296229,330.481162 781.076765,330.094029 780.769517,329.83594 C780.550053,329.706895 780.33059,329.491821 780.111126,329.491821 C779.452736,329.491821 778.794346,329.534836 778.179849,329.577851 C777.960385,329.577851 777.653137,329.534836 777.477566,329.405792 C776.599713,328.760569 775.634074,328.846599 774.624542,329.061673 C774.448972,329.104688 774.229508,329.276747 774.09783,329.190718 C773.615011,328.975643 773.263869,329.190718 773.044406,329.491821 C772.693265,329.362777 772.473801,329.104688 772.210445,329.104688 C771.595948,329.061673 770.937558,329.104688 770.32306,329.104688 C770.015812,329.147703 769.66467,329.233732 769.401314,329.190718 C768.260105,328.932629 767.162788,329.276747 766.065471,329.233732 C765.319295,329.190718 764.178086,329.147703 764.178086,330.524177 C764.178086,331.040355 763.300232,331.470503 762.992984,331.255429 C762.685735,331.040355 762.422379,330.739251 762.290701,330.438147 C762.159023,330.180058 762.202916,329.792925 762.202916,329.491821 C761.93956,329.491821 761.676204,329.448806 761.368955,329.448806 C760.359423,329.362777 759.393785,329.233732 758.384253,329.147703 C758.120897,329.147703 757.857541,329.061673 757.594185,329.147703 C756.496868,329.534836 755.355659,329.061673 754.258342,329.061673 C753.512166,329.061673 752.722098,328.631525 751.975923,328.975643 C751.888137,329.018658 751.712567,329.018658 751.580889,329.018658 C750.79082,328.975643 750.044645,329.276747 749.166792,329.061673 C748.508401,328.889614 747.718333,329.190718 747.016051,329.190718 C745.743163,329.233732 744.426383,329.276747 743.153495,329.018658 C741.836715,328.760569 740.739398,328.760569 739.642081,329.577851 C739.334833,329.83594 738.63255,329.964984 738.413087,329.792925 C737.710804,329.190718 736.83295,329.405792 736.130667,329.233732 C735.735633,329.147703 735.428385,329.147703 735.077243,329.491821 C734.85778,329.706895 734.374961,329.792925 733.979926,329.74991 C733.145966,329.663881 732.312005,329.534836 731.521937,329.319762 C730.468513,329.018658 729.458981,328.932629 728.405557,329.061673 C727.352133,329.190718 726.210923,329.104688 725.157499,329.362777 C724.147968,329.577851 723.182329,329.448806 722.21669,329.319762 C721.646085,329.233732 721.07548,329.104688 720.460983,329.405792 C719.890378,329.74991 719.144203,329.792925 718.485813,329.577851 C717.915208,329.362777 717.344603,329.233732 716.817891,329.061673 C716.686213,329.018658 716.510642,329.147703 716.422857,329.276747 C716.203394,329.491821 716.027823,329.74991 715.80836,329.878955 C715.632789,330.007999 715.413326,330.137044 715.193862,330.051014 C714.447687,329.921969 713.701511,329.878955 712.955336,329.792925 C712.03359,329.706895 711.155736,329.792925 710.277883,329.921969 C709.356137,330.051014 708.522176,330.094029 707.644322,329.706895 C707.512644,329.663881 706.985932,329.362777 707.073718,329.964984 C707.073718,329.964984 706.810361,330.094029 706.722576,330.051014 C706.503113,329.83594 706.327542,329.663881 706.239757,329.491821 Z M788.0557,330.696236 C787.924022,331.470503 788.0557,331.728592 788.801876,331.900651 C789.504159,332.07271 790.206441,332.15874 790.908724,332.15874 C791.918256,332.15874 792.883895,331.900651 793.849533,332.416829 C793.981211,332.459844 794.156782,332.416829 794.332353,332.416829 C795.824704,332.416829 797.273162,332.373814 798.765513,332.416829 C800.301756,332.459844 801.794107,332.588888 803.330351,332.674918 C804.120419,332.717933 804.910487,332.846977 805.700555,332.889992 C806.885657,332.933007 808.026867,332.933007 809.211969,333.019037 C809.870359,333.105066 810.133715,332.803962 810.353179,332.287785 C810.484857,331.943666 810.572642,331.599547 810.70432,331.212414 C809.343647,331.040355 808.07076,330.868296 806.797872,330.782266 C806.095589,330.739251 805.393307,330.825281 804.734916,330.91131 C803.681492,330.954325 803.549814,330.825281 803.857063,329.83594 C803.857063,329.792925 803.769278,329.792925 803.6376,329.663881 C803.593707,329.878955 803.505922,330.051014 803.418136,330.223073 C803.330351,330.91131 803.198673,330.99734 802.49639,330.91131 C801.838,330.825281 801.135717,330.782266 800.477327,330.782266 C799.775044,330.739251 799.072762,330.696236 798.370479,330.696236 C798.238801,331.212414 798.238801,331.212414 797.799874,330.868296 C797.668196,330.782266 797.492625,330.782266 797.317055,330.696236 C796.878128,330.524177 796.219738,330.567192 796.08806,330.309103 C795.736918,329.534836 795.034636,329.663881 794.595709,329.792925 C793.805641,330.051014 793.235036,329.921969 792.620538,329.362777 C792.269397,330.051014 791.742685,330.266088 791.084295,330.180058 C790.777046,330.180058 790.469797,330.137044 790.206441,330.137044 C789.460266,330.266088 788.757983,330.524177 788.0557,330.696236 Z M811.36271,331.556533 C811.713852,332.330799 811.977208,333.105066 812.986739,333.062051 C813.601236,333.062051 814.215734,333.062051 814.830231,333.105066 C815.883656,333.148081 816.893187,333.191096 817.946611,333.32014 C819.087821,333.363155 820.141245,333.879333 821.37024,333.578229 C821.940844,333.449185 822.555342,333.4922 823.169839,333.578229 C824.749976,333.750288 826.330112,334.094407 827.954141,333.836318 L828.173604,333.836318 C829.358706,334.309481 830.675487,334.094407 831.904481,334.309481 C832.431193,334.438526 833.045691,334.223451 833.616296,334.137422 C833.791866,334.094407 834.055222,333.922348 834.143008,333.750288 C834.143008,333.535214 834.055222,333.277125 833.879652,333.105066 C833.704081,332.976022 833.440725,332.846977 833.221262,332.803962 C832.431193,332.674918 831.641125,332.459844 830.89495,332.545873 C830.104882,332.631903 829.490384,332.588888 828.700316,332.330799 C827.690785,331.986681 826.593468,331.943666 825.540044,331.771607 C825.408366,331.771607 825.276688,331.771607 825.14501,331.814622 C824.706083,331.857636 824.311049,332.029696 823.872122,332.029696 C823.213732,332.029696 822.555342,331.943666 821.896952,331.986681 C820.580172,332.029696 819.263391,332.07271 817.902719,331.685577 C816.673724,331.384473 815.313051,331.427488 813.996271,331.384473 C813.206202,331.427488 812.328349,331.513518 811.36271,331.556533 Z M649.179281,333.277125 C649.179281,333.234111 649.135388,333.191096 649.135388,333.148081 C649.223174,333.019037 649.267066,332.889992 649.398744,332.717933 C649.223174,332.674918 649.047603,332.545873 648.915925,332.588888 C648.389213,332.803962 647.643037,332.631903 647.291896,333.32014 C647.248003,333.40617 646.984647,333.4922 646.852969,333.40617 C646.106794,333.062051 645.404511,333.32014 644.702228,333.40617 C643.473233,333.621244 642.200346,333.664259 640.927458,333.793303 C640.751888,333.836318 640.576317,333.793303 640.400746,333.707274 C639.040073,333.277125 637.767186,333.277125 636.625976,334.223451 C636.494298,334.352496 636.406513,334.56757 636.230942,334.739629 C636.450406,334.825659 636.669869,335.040733 636.84544,334.997718 C637.591615,334.868674 638.381683,334.610585 639.127859,334.825659 C639.127859,334.825659 639.171751,334.825659 639.215644,334.782644 C640.005712,334.309481 640.839673,334.696614 641.673634,334.610585 C643.165985,334.48154 644.702228,335.255807 646.194579,334.223451 L646.282365,334.223451 C647.116325,334.266466 647.950286,334.309481 648.784247,334.438526 C649.925456,334.56757 650.978881,334.223451 652.12009,334.094407 C653.041836,333.965363 653.963582,333.535214 654.929221,333.922348 C655.280363,334.051392 655.763182,334.137422 656.026538,334.008377 C656.641036,333.664259 657.299426,333.879333 657.913923,333.836318 C658.308957,333.793303 658.703991,333.793303 659.099025,333.750288 C659.625737,333.707274 660.196342,333.664259 660.854732,333.621244 C661.074196,333.32014 661.030303,333.019037 660.635269,332.717933 C660.196342,332.24477 659.713523,332.502859 659.230703,332.588888 C658.879562,332.674918 658.52842,332.760948 658.177279,332.760948 C657.474996,332.717933 656.772714,332.502859 656.070431,332.502859 C655.499826,332.416829 654.929221,332.502859 654.358616,332.502859 L652.646802,332.502859 C652.339553,332.502859 651.988412,332.459844 651.681163,332.588888 C650.847203,332.760948 650.013242,333.019037 649.179281,333.277125 Z M759.569355,326.308725 C759.174321,326.351739 758.82318,326.394754 758.472038,326.394754 C757.418614,326.351739 756.321297,326.222695 755.267873,326.17968 C754.916732,326.17968 754.56559,326.308725 754.214449,326.437769 C754.126664,326.480784 754.082771,326.652843 753.994986,326.781888 C754.126664,326.824902 754.258342,326.953947 754.39002,326.910932 C755.311766,326.867917 756.277405,326.824902 757.199151,326.781888 C757.374722,326.781888 757.594185,326.824902 757.769756,326.953947 C758.559824,327.255051 759.086536,327.039977 759.569355,326.308725 Z" id="Underline"></path>
        </g>
    </g>
</svg>