<?xml version="1.0" encoding="UTF-8"?>
<svg width="42px" height="42px" viewBox="0 0 42 42" version="1.1" xmlns="http://www.w3.org/2000/svg" xmlns:xlink="http://www.w3.org/1999/xlink">
    <!-- Generator: Sketch 46.2 (44496) - http://www.bohemiancoding.com/sketch -->
    <title>icon-pinterest</title>
    <desc>Created with Sketch.</desc>
    <defs></defs>
    <g id="Home" stroke="none" stroke-width="1" fill="none" fill-rule="evenodd">
        <g id="Footer" transform="translate(-895.000000, -991.000000)" fill-rule="nonzero" fill="#252525">
            <g id="Follow-Us" transform="translate(0.000000, 943.000000)">
                <g id="Icons" transform="translate(547.000000, 48.000000)">
                    <path d="M348,0 L348,42 L390,42 L390,0 L348,0 Z M369,35 C367.55625,35 366.165,34.78125 364.85425,34.37525 C365.42475,33.446 366.277,31.92175 366.59375,30.70375 L367.467,27.377 C367.92375,28.2485 369.25725,28.9835 370.67475,28.9835 C374.8975,28.9835 377.939,25.10025 377.939,20.2755 C377.939,15.65025 374.16425,12.1905 369.308,12.1905 C363.267,12.1905 360.0575,16.24525 360.0575,20.66225 C360.0575,22.71675 361.15125,25.27175 362.8995,26.08725 C363.16375,26.20975 363.3055,26.1555 363.3685,25.9 L363.757,24.31275 C363.79025,24.171 363.7745,24.05025 363.659,23.91025 C363.07975,23.21025 362.61775,21.91875 362.61775,20.7165 C362.61775,17.62775 364.95575,14.6405 368.93875,14.6405 C372.3775,14.6405 374.7855,16.98375 374.7855,20.33675 C374.7855,24.12375 372.87275,26.747 370.38425,26.747 C369.00875,26.747 367.97975,25.61125 368.3105,24.2165 C368.706,22.55225 369.47075,20.75675 369.47075,19.5545 C369.47075,18.48 368.89325,17.58225 367.69975,17.58225 C366.2945,17.58225 365.16575,19.0365 365.16575,20.9825 C365.16575,22.22325 365.584,23.0615 365.584,23.0615 C365.584,23.0615 364.19625,28.92925 363.9425,30.02125 C363.66075,31.2305 363.771,32.92975 363.8935,34.03575 C358.689,31.997 355,26.93075 355,21 C355,13.2685 361.2685,7 369,7 C376.7315,7 383,13.2685 383,21 C383,28.7315 376.7315,35 369,35 Z" id="icon-pinterest"></path>
                </g>
            </g>
        </g>
    </g>
</svg>