<?xml version="1.0" encoding="UTF-8"?>
<svg width="42px" height="42px" viewBox="0 0 42 42" version="1.1" xmlns="http://www.w3.org/2000/svg" xmlns:xlink="http://www.w3.org/1999/xlink">
    <!-- Generator: Sketch 46.2 (44496) - http://www.bohemiancoding.com/sketch -->
    <title>icon-google-plus</title>
    <desc>Created with Sketch.</desc>
    <defs></defs>
    <g id="Home" stroke="none" stroke-width="1" fill="none" fill-rule="evenodd">
        <g id="Footer" transform="translate(-605.000000, -991.000000)" fill-rule="nonzero" fill="#252525">
            <g id="Follow-Us" transform="translate(0.000000, 943.000000)">
                <g id="Icons" transform="translate(547.000000, 48.000000)">
                    <path d="M58,0 L58,42 L100,42 L100,0 L58,0 Z M73.16725,29.16725 C68.6505,29.16725 65,25.515 65,21 C65,16.485 68.6505,12.83275 73.16725,12.83275 C75.37225,12.83275 77.215,13.63775 78.6395,14.96775 L76.42225,17.10275 C75.815,16.52 74.75275,15.84275 73.16725,15.84275 C70.3795,15.84275 68.1045,18.15275 68.1045,21 C68.1045,23.84725 70.3795,26.15725 73.16725,26.15725 C76.3995,26.15725 77.61225,23.835 77.7995,22.6345 L73.16725,22.6345 L73.16725,19.8345 L80.87775,19.8345 C80.9495,20.24225 81.00725,20.65175 81.00725,21.18725 C81.00725,25.85275 77.88,29.16725 73.16725,29.16725 Z M93,22.16725 L89.5,22.16725 L89.5,25.66725 L87.16725,25.66725 L87.16725,22.16725 L83.66725,22.16725 L83.66725,19.8345 L87.16725,19.8345 L87.16725,16.3345 L89.5,16.3345 L89.5,19.8345 L93,19.8345 L93,22.16725 Z" id="icon-google-plus"></path>
                </g>
            </g>
        </g>
    </g>
</svg>