<?xml version="1.0" encoding="UTF-8"?>
<svg width="25px" height="24px" viewBox="0 0 25 24" version="1.1" xmlns="http://www.w3.org/2000/svg" xmlns:xlink="http://www.w3.org/1999/xlink">
    <!-- Generator: Sketch 46.2 (44496) - http://www.bohemiancoding.com/sketch -->
    <title>icon-foursquare</title>
    <desc>Created with Sketch.</desc>
    <defs></defs>
    <g id="Home" stroke="none" stroke-width="1" fill="none" fill-rule="evenodd">
        <g id="Menu" transform="translate(-306.000000, -674.000000)" fill="#5A5A5A">
            <g id="Icons" transform="translate(40.000000, 674.000000)">
                <path d="M266.142857,0 L290.142857,0 L290.142857,24 L266.142857,24 L266.142857,0 Z M273.76755,4 C272.512008,4 272.142857,4.9335424 272.142857,5.52178722 L272.142857,19.8176989 C272.142857,20.4802823 272.502618,20.7256537 272.705168,20.8067259 C272.90745,20.8880674 273.465737,20.9559418 273.800012,20.5748216 C273.800012,20.5748216 278.155242,15.6294171 278.224994,15.5526544 C278.294478,15.4761611 278.370937,15.4750837 278.411984,15.4750837 C278.45303,15.4750837 280.271689,15.4756224 281.171763,15.4756224 C282.339578,15.4756224 282.527373,14.6385048 282.648903,14.1536876 L283.697334,8.97853364 L284.270645,6.14935612 C284.560922,4.75308267 284.201966,4 282.86594,4 L273.76755,4 L273.76755,4 Z M274.142857,17.1806633 L274.142857,6.52240077 C274.142857,6.28204495 274.365475,6 274.699673,6 L282.052554,6 C282.323533,6 282.576139,6.2382971 282.506976,6.55045086 L282.122258,8.43109365 C282.076599,8.63413513 281.863167,8.82662566 281.61056,8.82662566 C281.357413,8.82662566 278.040836,8.82122151 278.040836,8.82122151 C277.639366,8.82122151 277.292471,9.10506785 277.292471,9.48155668 L277.292471,9.89124241 C277.292471,10.2682459 277.620995,10.5757676 278.022464,10.5757676 L281.050773,10.5757676 C281.334449,10.5757676 281.573547,10.8269317 281.512219,11.1110353 C281.450621,11.3956537 281.134795,12.8972342 281.100214,13.0526678 C281.065632,13.2083587 280.888672,13.4191204 280.604186,13.4191204 L278.132152,13.4191204 C277.618834,13.434046 277.508065,13.4373915 277.206828,13.788661 C276.905591,14.1401878 274.197161,17.1919863 274.197161,17.1919863 C274.185273,17.2045959 274.173926,17.21 274.164741,17.21 C274.151773,17.21 274.142857,17.1994491 274.142857,17.1806633 L274.142857,17.1806633 Z" id="icon-foursquare"></path>
            </g>
        </g>
    </g>
</svg>