<?xml version="1.0" encoding="UTF-8"?>
<svg width="25px" height="24px" viewBox="0 0 25 24" version="1.1" xmlns="http://www.w3.org/2000/svg" xmlns:xlink="http://www.w3.org/1999/xlink">
    <!-- Generator: Sketch 46.2 (44496) - http://www.bohemiancoding.com/sketch -->
    <title>icon-twitter</title>
    <desc>Created with Sketch.</desc>
    <defs></defs>
    <g id="Home" stroke="none" stroke-width="1" fill="none" fill-rule="evenodd">
        <g id="Menu" transform="translate(-107.000000, -674.000000)" fill-rule="nonzero" fill="#5A5A5A">
            <g id="Icons" transform="translate(40.000000, 674.000000)">
                <path d="M67.2857143,0 L67.2857143,24 L91.2857143,24 L91.2857143,0 L67.2857143,0 Z M86.1477143,9.237 C86.3557143,13.854 82.9127143,19.002 76.8177143,19.002 C74.9637143,19.002 73.2387143,18.459 71.7857143,17.527 C73.5277143,17.732 75.2657143,17.249 76.6457143,16.168 C75.2087143,16.141 73.9967143,15.192 73.5797143,13.888 C74.0947143,13.986 74.6007143,13.957 75.0617143,13.832 C73.4827143,13.515 72.3937143,12.093 72.4287143,10.572 C72.8707143,10.818 73.3777143,10.966 73.9147143,10.983 C72.4537143,10.006 72.0397143,8.076 72.8987143,6.6 C74.5177143,8.586 76.9367143,9.893 79.6647143,10.03 C79.1857143,7.977 80.7437143,6 82.8627143,6 C83.8067143,6 84.6597143,6.398 85.2587143,7.037 C86.0067143,6.89 86.7097143,6.617 87.3437143,6.241 C87.0987143,7.008 86.5777143,7.651 85.9007143,8.057 C86.5647143,7.977 87.1977143,7.801 87.7857143,7.54 C87.3457143,8.196 86.7887143,8.774 86.1477143,9.237 L86.1477143,9.237 Z" id="icon-twitter"></path>
            </g>
        </g>
    </g>
</svg>