<?xml version="1.0" encoding="UTF-8"?>
<svg width="32px" height="24px" viewBox="0 0 32 24" version="1.1" xmlns="http://www.w3.org/2000/svg" xmlns:xlink="http://www.w3.org/1999/xlink">
    <!-- Generator: Sketch 46.2 (44496) - http://www.bohemiancoding.com/sketch -->
    <title>Effectlab</title>
    <desc>Created with Sketch.</desc>
    <defs></defs>
    <g id="Home" stroke="none" stroke-width="1" fill="none" fill-rule="evenodd" opacity="0.198992301">
        <g id="About" transform="translate(-329.000000, -336.000000)" fill="#FFFFFF">
            <path d="M329.072778,336.086509 C329.124991,336.138722 331.84006,338.175024 335.077257,340.576815 C338.314455,342.978607 341.029524,344.962696 341.081737,345.014909 C341.186162,345.119334 340.977311,345.014909 338.418881,343.344097 C337.270198,342.613117 336.22594,341.93435 336.173728,341.93435 C336.069302,341.882137 335.338322,341.829924 334.502916,341.777711 C333.66751,341.725498 332.832104,341.621072 332.675466,341.621072 L332.414401,341.56886 L332.988743,341.882137 C333.30202,342.038775 336.017089,343.448523 338.993222,344.962696 C342.9614,346.946784 344.475573,347.729977 344.736637,347.78219 C344.893276,347.834403 345.049914,347.886616 345.049914,347.886616 C345.049914,347.938829 344.214508,350.653898 343.118038,353.943308 C342.021568,357.284931 341.133949,360 341.133949,360 C341.133949,360 346.041959,353.473392 346.146384,353.316754 C346.146384,353.264541 345.624256,353.421179 344.945488,353.682244 C344.266721,353.891095 343.69238,354.099947 343.69238,354.099947 C343.69238,354.099947 344.214508,353.838882 344.893276,353.525605 C351.576522,350.288408 355.074784,348.617596 355.126997,348.51317 C355.179209,348.460957 355.492487,347.103423 355.857977,345.484824 C356.223467,343.866226 356.536744,342.508691 356.536744,342.560904 C356.536744,342.560904 356.536744,343.03082 356.484531,343.605161 C356.432318,344.179503 356.432318,344.649419 356.432318,344.649419 C356.484531,344.649419 360.243857,344.075077 360.243857,344.022864 C360.29607,343.970651 356.850021,341.621072 356.693382,341.56886 C356.64117,341.56886 351.472096,343.187458 351.36767,343.291884 C351.315458,343.291884 351.680948,343.7618 352.098651,344.283928 C352.516353,344.806057 353.090695,345.58925 353.351759,345.95474 L353.873888,346.633507 L352.881843,345.641463 C352.359715,345.119334 350.532265,343.239671 348.80924,341.464434 C347.086216,339.741409 345.676468,338.279449 345.676468,338.279449 C345.624256,338.279449 341.917142,337.757321 337.426836,337.130766 C332.988743,336.556425 329.229417,336.034296 329.124991,336.034296 C328.968353,335.982083 328.968353,335.982083 329.072778,336.086509" id="Effectlab"></path>
        </g>
    </g>
</svg>