<?xml version="1.0" encoding="UTF-8"?>
<svg width="25px" height="24px" viewBox="0 0 25 24" version="1.1" xmlns="http://www.w3.org/2000/svg" xmlns:xlink="http://www.w3.org/1999/xlink">
    <!-- Generator: Sketch 46.2 (44496) - http://www.bohemiancoding.com/sketch -->
    <title>icon-google-plus</title>
    <desc>Created with Sketch.</desc>
    <defs></defs>
    <g id="Home" stroke="none" stroke-width="1" fill="none" fill-rule="evenodd">
        <g id="Menu" transform="translate(-74.000000, -674.000000)" fill-rule="nonzero" fill="#5A5A5A">
            <g id="Icons" transform="translate(40.000000, 674.000000)">
                <path d="M34.1428571,0 L34.1428571,24 L58.1428571,24 L58.1428571,0 L34.1428571,0 Z M42.8098571,16.667 C40.2288571,16.667 38.1428571,14.58 38.1428571,12 C38.1428571,9.42 40.2288571,7.333 42.8098571,7.333 C44.0698571,7.333 45.1228571,7.793 45.9368571,8.553 L44.6698571,9.773 C44.3228571,9.44 43.7158571,9.053 42.8098571,9.053 C41.2168571,9.053 39.9168571,10.373 39.9168571,12 C39.9168571,13.627 41.2168571,14.947 42.8098571,14.947 C44.6568571,14.947 45.3498571,13.62 45.4568571,12.934 L42.8098571,12.934 L42.8098571,11.334 L47.2158571,11.334 C47.2568571,11.567 47.2898571,11.801 47.2898571,12.107 C47.2898571,14.773 45.5028571,16.667 42.8098571,16.667 Z M54.1428571,12.667 L52.1428571,12.667 L52.1428571,14.667 L50.8098571,14.667 L50.8098571,12.667 L48.8098571,12.667 L48.8098571,11.334 L50.8098571,11.334 L50.8098571,9.334 L52.1428571,9.334 L52.1428571,11.334 L54.1428571,11.334 L54.1428571,12.667 Z" id="icon-google-plus"></path>
            </g>
        </g>
    </g>
</svg>