<?xml version="1.0" encoding="UTF-8"?>
<svg width="42px" height="42px" viewBox="0 0 42 42" version="1.1" xmlns="http://www.w3.org/2000/svg" xmlns:xlink="http://www.w3.org/1999/xlink">
    <!-- Generator: Sketch 46.2 (44496) - http://www.bohemiancoding.com/sketch -->
    <title>icon-behance</title>
    <desc>Created with Sketch.</desc>
    <defs></defs>
    <g id="Home" stroke="none" stroke-width="1" fill="none" fill-rule="evenodd">
        <g id="Footer" transform="translate(-779.000000, -991.000000)" fill-rule="nonzero" fill="#252525">
            <g id="Follow-Us" transform="translate(0.000000, 943.000000)">
                <g id="Icons" transform="translate(547.000000, 48.000000)">
                    <path d="M263.50525,21.58275 L258.22375,21.58275 C258.7295,18.123 263.30225,18.5815 263.50525,21.58275 Z M246.45675,22.75 L242.5,22.75 L242.5,26.2675 L246.399,26.2675 C249.962,26.2675 249.74325,22.75 246.45675,22.75 Z M246.31675,15.75 L242.5,15.75 L242.5,19.25 L246.68075,19.25 C249.6085,19.25 250.07225,15.75 246.31675,15.75 Z M274,0 L274,42 L232,42 L232,0 L274,0 Z M256.5,14 L265.25,14 L265.25,12.25 L256.5,12.25 L256.5,14 Z M250.284,20.3315 C253.62125,18.627 253.49875,12.369 247.11125,12.2745 L239,12.2745 L239,29.736 L246.54425,29.736 C254.45775,29.736 254.323,21.8015 250.284,20.3315 L250.284,20.3315 Z M266.88625,21.385 C266.40675,18.29975 264.2105,16.2225 260.616,16.2225 C256.94975,16.2225 254.75,18.5675 254.75,23.12975 C254.75,27.734 257.144,29.75 260.72975,29.75 C264.31375,29.75 266.16525,27.76375 266.67975,26.25 L262.98375,26.25 C261.694,27.74625 257.921,27.16175 258.1415,23.88225 L266.99475,23.88225 C267.01225,22.77275 266.9755,21.9765 266.88625,21.385 L266.88625,21.385 Z" id="icon-behance"></path>
                </g>
            </g>
        </g>
    </g>
</svg>