<?xml version="1.0" encoding="UTF-8"?>
<svg width="25px" height="24px" viewBox="0 0 25 24" version="1.1" xmlns="http://www.w3.org/2000/svg" xmlns:xlink="http://www.w3.org/1999/xlink">
    <!-- Generator: Sketch 46.2 (44496) - http://www.bohemiancoding.com/sketch -->
    <title>icon-pinterest</title>
    <desc>Created with Sketch.</desc>
    <defs></defs>
    <g id="Home" stroke="none" stroke-width="1" fill="none" fill-rule="evenodd">
        <g id="Menu" transform="translate(-239.000000, -674.000000)" fill-rule="nonzero" fill="#5A5A5A">
            <g id="Icons" transform="translate(40.000000, 674.000000)">
                <path d="M199.857143,0 L199.857143,24 L223.857143,24 L223.857143,0 L199.857143,0 Z M211.857143,20 C211.032143,20 210.237143,19.875 209.488143,19.643 C209.814143,19.112 210.301143,18.241 210.482143,17.545 L210.981143,15.644 C211.242143,16.142 212.004143,16.562 212.814143,16.562 C215.227143,16.562 216.965143,14.343 216.965143,11.586 C216.965143,8.943 214.808143,6.966 212.033143,6.966 C208.581143,6.966 206.747143,9.283 206.747143,11.807 C206.747143,12.981 207.372143,14.441 208.371143,14.907 C208.522143,14.977 208.603143,14.946 208.639143,14.8 L208.861143,13.893 C208.880143,13.812 208.871143,13.743 208.805143,13.663 C208.474143,13.263 208.210143,12.525 208.210143,11.838 C208.210143,10.073 209.546143,8.366 211.822143,8.366 C213.787143,8.366 215.163143,9.705 215.163143,11.621 C215.163143,13.785 214.070143,15.284 212.648143,15.284 C211.862143,15.284 211.274143,14.635 211.463143,13.838 C211.689143,12.887 212.126143,11.861 212.126143,11.174 C212.126143,10.56 211.796143,10.047 211.114143,10.047 C210.311143,10.047 209.666143,10.878 209.666143,11.99 C209.666143,12.699 209.905143,13.178 209.905143,13.178 C209.905143,13.178 209.112143,16.531 208.967143,17.155 C208.806143,17.846 208.869143,18.817 208.939143,19.449 C205.965143,18.284 203.857143,15.389 203.857143,12 C203.857143,7.582 207.439143,4 211.857143,4 C216.275143,4 219.857143,7.582 219.857143,12 C219.857143,16.418 216.275143,20 211.857143,20 Z" id="icon-pinterest"></path>
            </g>
        </g>
    </g>
</svg>