<?xml version="1.0" encoding="UTF-8"?>
<svg width="62px" height="59px" viewBox="0 0 62 59" version="1.1" xmlns="http://www.w3.org/2000/svg" xmlns:xlink="http://www.w3.org/1999/xlink">
    <!-- Generator: Sketch 46.2 (44496) - http://www.bohemiancoding.com/sketch -->
    <title>Icon</title>
    <desc>Created with Sketch.</desc>
    <defs></defs>
    <g id="Home" stroke="none" stroke-width="1" fill="none" fill-rule="evenodd">
        <g id="Recent-Work" transform="translate(-771.000000, -1035.000000)">
            <g id="Wok-Icon.-Text,-Button" transform="translate(372.000000, 1035.000000)">
                <g id="Icon" transform="translate(399.000000, 0.000000)">
                    <path d="M54,0 L34,0 C32.897,0 32,0.897 32,2 L32,30 C32,31.103 32.897,32 34,32 L54,32 C55.103,32 56,31.103 56,30 L56,2 C56,0.897 55.103,0 54,0 Z M44,28 C42.895,28 42,27.105 42,26 C42,24.895 42.895,24 44,24 C45.105,24 46,24.895 46,26 C46,27.105 45.105,28 44,28 Z M20,28 L8,28 C6.897,28 6,28.897 6,30 L6,52 C6,53.103 6.897,54 8,54 L20,54 C21.103,54 22,53.103 22,52 L22,30 C22,28.897 21.103,28 20,28 Z M14,51 C12.895,51 12,50.105 12,49 C12,47.895 12.895,47 14,47 C15.105,47 16,47.895 16,49 C16,50.105 15.105,51 14,51 Z M4,48 L1,48 C0.447,48 0,47.553 0,47 L0,7 C0,6.447 0.447,6 1,6 L30,6 L30,8 L2,8 L2,46 L4,46 L4,48 Z M61,48 L24,48 L24,46 L60,46 L60,8 L58,8 L58,6 L61,6 C61.553,6 62,6.447 62,7 L62,47 C62,47.553 61.553,48 61,48 Z" id="Combined-Shape" fill="#252525" fill-rule="nonzero"></path>
                    <path d="M41,57 L36,57 L36,52 L26,52 L26,57 L21,57 C20.447,57 20,57.447 20,58 C20,58.553 20.447,59 21,59 L41,59 C41.553,59 42,58.553 42,58 C42,57.447 41.553,57 41,57 Z" id="Shape" fill="#00EB7F"></path>
                </g>
            </g>
        </g>
    </g>
</svg>