<?xml version="1.0" encoding="UTF-8"?>
<svg width="63px" height="48px" viewBox="0 0 63 48" version="1.1" xmlns="http://www.w3.org/2000/svg" xmlns:xlink="http://www.w3.org/1999/xlink">
    <title>Effectlab</title>
    <defs>
        <path id="Effectlab" d="M0.145556606,0.173018205 C0.249982331,0.27744393 5.68012,4.35004718 12.1545149,9.15363051 C18.6289098,13.9572138 24.0590475,17.9253914 24.1634732,18.0298171 C24.3723247,18.2386685 23.9546218,18.0298171 18.8377613,14.6881939 C16.5403953,13.2262338 14.4518809,11.8686993 14.3474551,11.8686993 C14.1386037,11.7642736 12.6766435,11.6598479 11.0058319,11.5554222 C9.33502036,11.4509964 7.66420877,11.242145 7.35093159,11.242145 L6.82880297,11.1377193 L7.97748594,11.7642736 C8.60404029,12.0775508 14.034178,14.8970454 19.9864443,17.9253914 C27.9227993,21.8935689 30.9511453,23.4599548 31.4732739,23.5643805 C31.7865511,23.6688062 32.0998283,23.7732319 32.0998283,23.7732319 C32.0998283,23.8776577 30.4290167,29.3077953 28.2360765,35.886616 C26.0431363,42.5698623 24.267899,48 24.267899,48 C24.267899,48 34.0839171,34.9467844 34.2927685,34.6335073 C34.2927685,34.5290815 33.2485113,34.8423587 31.8909768,35.3644873 C30.5334424,35.7821902 29.3847595,36.1998931 29.3847595,36.1998931 C29.3847595,36.1998931 30.4290167,35.6777645 31.7865511,35.0512102 C45.1530438,28.5768153 52.1495674,25.2351921 52.2539931,25.0263406 C52.3584188,24.9219149 52.9849732,22.2068461 53.7159532,18.9696486 C54.4469333,15.7324511 55.0734877,13.0173823 55.0734877,13.121808 C55.0734877,13.121808 55.0734877,14.0616396 54.9690619,15.2103225 C54.8646362,16.3590055 54.8646362,17.298837 54.8646362,17.298837 C54.9690619,17.298837 62.4877141,16.150154 62.4877141,16.0457283 C62.5921398,15.9413026 55.700042,11.242145 55.3867648,11.1377193 C55.2823391,11.1377193 44.9441924,14.3749167 44.7353409,14.5837682 C44.6309152,14.5837682 45.3618953,15.5235997 46.1973011,16.5678569 C47.0327069,17.6121142 48.1813899,19.1785001 48.7035185,19.9094801 L49.7477757,21.2670145 L47.763687,19.2829258 C46.7194297,18.2386685 43.0645294,14.4793425 39.6184804,10.9288678 C36.1724315,7.48281892 33.352937,4.55889863 33.352937,4.55889863 C33.2485113,4.55889863 25.8342848,3.51464139 16.8536725,2.26153269 C7.97748594,1.11284973 0.45883378,0.0685924809 0.249982331,0.0685924809 C-0.0632948424,-0.0358332436 -0.0632948424,-0.0358332436 0.145556606,0.173018205"></path>
    </defs>
    <use fill="#252525" xlink:href="#Effectlab"></use>
</svg>